# MagicaVoxel @ Ephtracy

# group
o 

# material
mtllib casa.mtl
usemtl palette

# normals
vn -1 0 0
vn 1 0 0
vn 0 0 1
vn 0 0 -1
vn 0 -1 0
vn 0 1 0

# texcoords
vt 0.146484 0.5
vt 0.158203 0.5
vt 0.373047 0.5
vt 0.533203 0.5
vt 0.537109 0.5
vt 0.958984 0.5
vt 0.982422 0.5

# verts
v 0 2 -1.3
v 0 2 -4
v 0 2.8 -1.3
v 0 2.8 -4
v 0.7 2.1 -3.3
v 0.7 2.1 -3.6
v 0.7 2.2 -3.3
v 0.7 2.2 -3.6
v 1.3 2.1 -1.4
v 1.3 2.1 -1.6
v 1.3 2.4 -1.4
v 1.3 2.4 -1.6
v 1.5 2.1 -2.4
v 1.5 2.1 -2.5
v 1.5 2.5 -2.4
v 1.5 2.5 -2.5
v 1.8 2 0
v 1.8 2 -1.3
v 1.8 2.8 0
v 1.8 2.8 -1.3
v 2 2.1 -0.1
v 2 2.1 -0.4
v 2 2.2 -0.1
v 2 2.2 -0.4
v 2.2 2.1 -2.5
v 2.2 2.1 -3.9
v 2.2 2.7 -2.5
v 2.2 2.7 -3.9
v 2.8 2.1 -1.3
v 2.8 2.1 -1.4
v 2.8 2.1 -2.4
v 2.8 2.1 -2.5
v 2.8 2.5 -1.3
v 2.8 2.5 -1.4
v 2.8 2.5 -2.4
v 2.8 2.5 -2.5
v 3.4 2.1 -1
v 3.4 2.1 -1.1
v 3.4 2.1 -1.2
v 3.4 2.1 -1.3
v 3.4 2.2 -1
v 3.4 2.2 -1.1
v 3.4 2.2 -1.2
v 3.4 2.3 -1.1
v 3.4 2.3 -1.3
v 3.5 2.3 -1.2
v 3.5 2.3 -1.3
v 3.5 2.4 -1.2
v 3.5 2.4 -1.3
v 3.9 2.1 -0.1
v 3.9 2.1 -1.3
v 3.9 2.1 -1.4
v 3.9 2.1 -2.4
v 3.9 2.1 -2.5
v 3.9 2.1 -3.9
v 3.9 2.7 -0.1
v 3.9 2.7 -1.3
v 3.9 2.7 -1.4
v 3.9 2.7 -2.4
v 3.9 2.7 -2.5
v 3.9 2.7 -3.9
v 0.1 2.1 -1.4
v 0.1 2.1 -2.4
v 0.1 2.1 -2.5
v 0.1 2.1 -3.9
v 0.1 2.7 -1.4
v 0.1 2.7 -2.4
v 0.1 2.7 -2.5
v 0.1 2.7 -3.9
v 1 2.1 -3.3
v 1 2.1 -3.6
v 1 2.2 -3.3
v 1 2.2 -3.6
v 1.3 2.1 -2.4
v 1.3 2.1 -2.5
v 1.3 2.5 -2.4
v 1.3 2.5 -2.5
v 1.5 2.1 -1.4
v 1.5 2.1 -1.6
v 1.5 2.4 -1.4
v 1.5 2.4 -1.6
v 1.9 2.1 -0.1
v 1.9 2.1 -1.3
v 1.9 2.7 -0.1
v 1.9 2.7 -1.3
v 2.3 2.1 -2.5
v 2.3 2.1 -3.9
v 2.3 2.7 -2.5
v 2.3 2.7 -3.9
v 2.4 2.1 -0.1
v 2.4 2.1 -0.4
v 2.4 2.2 -0.1
v 2.4 2.2 -0.4
v 2.6 2.1 -1.3
v 2.6 2.1 -1.4
v 2.6 2.1 -2.4
v 2.6 2.1 -2.5
v 2.6 2.5 -1.3
v 2.6 2.5 -1.4
v 2.6 2.5 -2.4
v 2.6 2.5 -2.5
v 3.6 2.1 -1
v 3.6 2.1 -1.1
v 3.6 2.1 -1.2
v 3.6 2.1 -1.3
v 3.6 2.2 -1
v 3.6 2.2 -1.1
v 3.6 2.2 -1.2
v 3.6 2.3 -1.1
v 3.6 2.3 -1.2
v 3.6 2.3 -1.3
v 3.6 2.4 -1.2
v 3.6 2.4 -1.3
v 4 2 0
v 4 2 -4
v 4 2.8 0
v 4 2.8 -4
v 1.8 2 0
v 1.8 2.8 0
v 4 2 0
v 4 2.8 0
v 3.4 2.1 -1
v 3.4 2.2 -1
v 3.6 2.1 -1
v 3.6 2.2 -1
v 3.4 2.2 -1.1
v 3.4 2.3 -1.1
v 3.6 2.2 -1.1
v 3.6 2.3 -1.1
v 3.4 2.1 -1.2
v 3.4 2.2 -1.2
v 3.5 2.3 -1.2
v 3.5 2.4 -1.2
v 3.6 2.1 -1.2
v 3.6 2.2 -1.2
v 3.6 2.3 -1.2
v 3.6 2.4 -1.2
v 0 2 -1.3
v 0 2.8 -1.3
v 1.8 2 -1.3
v 1.8 2.8 -1.3
v 1.9 2.1 -1.3
v 1.9 2.7 -1.3
v 2.6 2.1 -1.3
v 2.6 2.5 -1.3
v 2.8 2.1 -1.3
v 2.8 2.5 -1.3
v 3.4 2.1 -1.3
v 3.4 2.3 -1.3
v 3.5 2.3 -1.3
v 3.5 2.4 -1.3
v 3.6 2.1 -1.3
v 3.6 2.3 -1.3
v 3.6 2.4 -1.3
v 3.9 2.1 -1.3
v 3.9 2.7 -1.3
v 0.1 2.1 -2.4
v 0.1 2.7 -2.4
v 1.3 2.1 -2.4
v 1.3 2.5 -2.4
v 1.5 2.1 -2.4
v 1.5 2.5 -2.4
v 2.6 2.1 -2.4
v 2.6 2.5 -2.4
v 2.8 2.1 -2.4
v 2.8 2.5 -2.4
v 3.9 2.1 -2.4
v 3.9 2.7 -2.4
v 0.7 2.1 -3.3
v 0.7 2.2 -3.3
v 1 2.1 -3.3
v 1 2.2 -3.3
v 0.1 2.1 -3.9
v 0.1 2.7 -3.9
v 2.2 2.1 -3.9
v 2.2 2.7 -3.9
v 2.3 2.1 -3.9
v 2.3 2.7 -3.9
v 3.9 2.1 -3.9
v 3.9 2.7 -3.9
v 1.9 2.1 -0.1
v 1.9 2.7 -0.1
v 2 2.1 -0.1
v 2 2.2 -0.1
v 2.4 2.1 -0.1
v 2.4 2.2 -0.1
v 3.9 2.1 -0.1
v 3.9 2.7 -0.1
v 2 2.1 -0.4
v 2 2.2 -0.4
v 2.4 2.1 -0.4
v 2.4 2.2 -0.4
v 3.4 2.1 -1.1
v 3.4 2.2 -1.1
v 3.6 2.1 -1.1
v 3.6 2.2 -1.1
v 0.1 2.1 -1.4
v 0.1 2.7 -1.4
v 1.3 2.1 -1.4
v 1.3 2.4 -1.4
v 1.5 2.1 -1.4
v 1.5 2.4 -1.4
v 2.6 2.1 -1.4
v 2.6 2.5 -1.4
v 2.8 2.1 -1.4
v 2.8 2.5 -1.4
v 3.9 2.1 -1.4
v 3.9 2.7 -1.4
v 1.3 2.1 -1.6
v 1.3 2.4 -1.6
v 1.5 2.1 -1.6
v 1.5 2.4 -1.6
v 0.1 2.1 -2.5
v 0.1 2.7 -2.5
v 1.3 2.1 -2.5
v 1.3 2.5 -2.5
v 1.5 2.1 -2.5
v 1.5 2.5 -2.5
v 2.2 2.1 -2.5
v 2.2 2.7 -2.5
v 2.3 2.1 -2.5
v 2.3 2.7 -2.5
v 2.6 2.1 -2.5
v 2.6 2.5 -2.5
v 2.8 2.1 -2.5
v 2.8 2.5 -2.5
v 3.9 2.1 -2.5
v 3.9 2.7 -2.5
v 0.7 2.1 -3.6
v 0.7 2.2 -3.6
v 1 2.1 -3.6
v 1 2.2 -3.6
v 0 2 -4
v 0 2.8 -4
v 4 2 -4
v 4 2.8 -4
v 1.8 2 0
v 4 2 0
v 0 2 -1.3
v 1.8 2 -1.3
v 0 2 -4
v 4 2 -4
v 3.4 2.2 -1.1
v 3.6 2.2 -1.1
v 3.4 2.2 -1.2
v 3.6 2.2 -1.2
v 2.6 2.5 -1.3
v 2.8 2.5 -1.3
v 2.6 2.5 -1.4
v 2.8 2.5 -1.4
v 1.3 2.5 -2.4
v 1.5 2.5 -2.4
v 2.6 2.5 -2.4
v 2.8 2.5 -2.4
v 1.3 2.5 -2.5
v 1.5 2.5 -2.5
v 2.6 2.5 -2.5
v 2.8 2.5 -2.5
v 1.9 2.7 -0.1
v 3.9 2.7 -0.1
v 1.9 2.7 -1.3
v 3.9 2.7 -1.3
v 0.1 2.7 -1.4
v 3.9 2.7 -1.4
v 0.1 2.7 -2.4
v 3.9 2.7 -2.4
v 0.1 2.7 -2.5
v 2.2 2.7 -2.5
v 2.3 2.7 -2.5
v 3.9 2.7 -2.5
v 0.1 2.7 -3.9
v 2.2 2.7 -3.9
v 2.3 2.7 -3.9
v 3.9 2.7 -3.9
v 1.9 2.1 -0.1
v 2 2.1 -0.1
v 2.4 2.1 -0.1
v 3.9 2.1 -0.1
v 2 2.1 -0.4
v 2.4 2.1 -0.4
v 3.4 2.1 -1
v 3.6 2.1 -1
v 3.4 2.1 -1.1
v 3.6 2.1 -1.1
v 3.4 2.1 -1.2
v 3.6 2.1 -1.2
v 1.9 2.1 -1.3
v 2.6 2.1 -1.3
v 2.8 2.1 -1.3
v 3.4 2.1 -1.3
v 3.6 2.1 -1.3
v 3.9 2.1 -1.3
v 0.1 2.1 -1.4
v 1.3 2.1 -1.4
v 1.5 2.1 -1.4
v 2.6 2.1 -1.4
v 2.8 2.1 -1.4
v 3.9 2.1 -1.4
v 1.3 2.1 -1.6
v 1.5 2.1 -1.6
v 0.1 2.1 -2.4
v 1.3 2.1 -2.4
v 1.5 2.1 -2.4
v 2.6 2.1 -2.4
v 2.8 2.1 -2.4
v 3.9 2.1 -2.4
v 0.1 2.1 -2.5
v 1.3 2.1 -2.5
v 1.5 2.1 -2.5
v 2.2 2.1 -2.5
v 2.3 2.1 -2.5
v 2.6 2.1 -2.5
v 2.8 2.1 -2.5
v 3.9 2.1 -2.5
v 0.7 2.1 -3.3
v 1 2.1 -3.3
v 0.7 2.1 -3.6
v 1 2.1 -3.6
v 0.1 2.1 -3.9
v 2.2 2.1 -3.9
v 2.3 2.1 -3.9
v 3.9 2.1 -3.9
v 2 2.2 -0.1
v 2.4 2.2 -0.1
v 2 2.2 -0.4
v 2.4 2.2 -0.4
v 3.4 2.2 -1
v 3.6 2.2 -1
v 3.4 2.2 -1.1
v 3.6 2.2 -1.1
v 0.7 2.2 -3.3
v 1 2.2 -3.3
v 0.7 2.2 -3.6
v 1 2.2 -3.6
v 3.4 2.3 -1.1
v 3.6 2.3 -1.1
v 3.5 2.3 -1.2
v 3.6 2.3 -1.2
v 3.4 2.3 -1.3
v 3.5 2.3 -1.3
v 3.5 2.4 -1.2
v 3.6 2.4 -1.2
v 3.5 2.4 -1.3
v 3.6 2.4 -1.3
v 1.3 2.4 -1.4
v 1.5 2.4 -1.4
v 1.3 2.4 -1.6
v 1.5 2.4 -1.6
v 1.8 2.8 0
v 4 2.8 0
v 0 2.8 -1.3
v 1.8 2.8 -1.3
v 0 2.8 -4
v 4 2.8 -4

# faces
f 3/1/1 2/1/1 1/1/1
f 4/1/1 2/1/1 3/1/1
f 7/2/1 6/2/1 5/2/1
f 8/2/1 6/2/1 7/2/1
f 11/3/1 10/3/1 9/3/1
f 12/3/1 10/3/1 11/3/1
f 15/1/1 14/1/1 13/1/1
f 16/1/1 14/1/1 15/1/1
f 19/1/1 18/1/1 17/1/1
f 20/1/1 18/1/1 19/1/1
f 23/6/1 22/6/1 21/6/1
f 24/6/1 22/6/1 23/6/1
f 27/1/1 26/1/1 25/1/1
f 28/1/1 26/1/1 27/1/1
f 33/1/1 30/1/1 29/1/1
f 34/1/1 30/1/1 33/1/1
f 35/1/1 32/1/1 31/1/1
f 36/1/1 32/1/1 35/1/1
f 41/4/1 38/4/1 37/4/1
f 42/4/1 38/4/1 41/4/1
f 43/5/1 40/5/1 39/5/1
f 44/5/1 43/5/1 42/5/1
f 45/5/1 40/5/1 43/5/1
f 45/5/1 43/5/1 44/5/1
f 48/7/1 47/7/1 46/7/1
f 49/7/1 47/7/1 48/7/1
f 56/1/1 51/1/1 50/1/1
f 57/1/1 51/1/1 56/1/1
f 58/1/1 53/1/1 52/1/1
f 59/1/1 53/1/1 58/1/1
f 60/1/1 55/1/1 54/1/1
f 61/1/1 55/1/1 60/1/1
f 62/1/2 63/1/2 66/1/2
f 66/1/2 63/1/2 67/1/2
f 64/1/2 65/1/2 68/1/2
f 68/1/2 65/1/2 69/1/2
f 70/2/2 71/2/2 72/2/2
f 72/2/2 71/2/2 73/2/2
f 74/1/2 75/1/2 76/1/2
f 76/1/2 75/1/2 77/1/2
f 78/3/2 79/3/2 80/3/2
f 80/3/2 79/3/2 81/3/2
f 82/1/2 83/1/2 84/1/2
f 84/1/2 83/1/2 85/1/2
f 86/1/2 87/1/2 88/1/2
f 88/1/2 87/1/2 89/1/2
f 90/6/2 91/6/2 92/6/2
f 92/6/2 91/6/2 93/6/2
f 94/1/2 95/1/2 98/1/2
f 98/1/2 95/1/2 99/1/2
f 96/1/2 97/1/2 100/1/2
f 100/1/2 97/1/2 101/1/2
f 102/4/2 103/4/2 106/4/2
f 106/4/2 103/4/2 107/4/2
f 104/5/2 105/5/2 108/5/2
f 107/5/2 108/5/2 109/5/2
f 108/5/2 105/5/2 110/5/2
f 109/5/2 108/5/2 110/5/2
f 110/5/2 105/5/2 111/5/2
f 110/7/2 111/7/2 112/7/2
f 112/7/2 111/7/2 113/7/2
f 114/1/2 115/1/2 116/1/2
f 116/1/2 115/1/2 117/1/2
f 120/1/3 119/1/3 118/1/3
f 121/1/3 119/1/3 120/1/3
f 124/4/3 123/4/3 122/4/3
f 125/4/3 123/4/3 124/4/3
f 128/5/3 127/5/3 126/5/3
f 129/5/3 127/5/3 128/5/3
f 134/5/3 131/5/3 130/5/3
f 135/5/3 131/5/3 134/5/3
f 136/7/3 133/7/3 132/7/3
f 137/7/3 133/7/3 136/7/3
f 140/1/3 139/1/3 138/1/3
f 141/1/3 139/1/3 140/1/3
f 144/1/3 143/1/3 142/1/3
f 145/1/3 143/1/3 144/1/3
f 147/1/3 143/1/3 145/1/3
f 148/1/3 147/1/3 146/1/3
f 149/1/3 147/1/3 148/1/3
f 150/1/3 147/1/3 149/1/3
f 151/1/3 147/1/3 150/1/3
f 154/1/3 147/1/3 151/1/3
f 155/1/3 153/1/3 152/1/3
f 155/1/3 154/1/3 153/1/3
f 156/1/3 143/1/3 147/1/3
f 156/1/3 154/1/3 155/1/3
f 156/1/3 147/1/3 154/1/3
f 159/1/3 158/1/3 157/1/3
f 160/1/3 158/1/3 159/1/3
f 162/1/3 158/1/3 160/1/3
f 163/1/3 162/1/3 161/1/3
f 164/1/3 158/1/3 162/1/3
f 164/1/3 162/1/3 163/1/3
f 166/1/3 158/1/3 164/1/3
f 167/1/3 166/1/3 165/1/3
f 168/1/3 158/1/3 166/1/3
f 168/1/3 166/1/3 167/1/3
f 171/2/3 170/2/3 169/2/3
f 172/2/3 170/2/3 171/2/3
f 175/1/3 174/1/3 173/1/3
f 176/1/3 174/1/3 175/1/3
f 179/1/3 178/1/3 177/1/3
f 180/1/3 178/1/3 179/1/3
f 181/1/4 182/1/4 183/1/4
f 183/1/4 182/1/4 184/1/4
f 184/1/4 182/1/4 186/1/4
f 185/1/4 186/1/4 187/1/4
f 186/1/4 182/1/4 188/1/4
f 187/1/4 186/1/4 188/1/4
f 189/6/4 190/6/4 191/6/4
f 191/6/4 190/6/4 192/6/4
f 193/4/4 194/4/4 195/4/4
f 195/4/4 194/4/4 196/4/4
f 197/1/4 198/1/4 199/1/4
f 199/1/4 198/1/4 200/1/4
f 200/1/4 198/1/4 202/1/4
f 201/1/4 202/1/4 203/1/4
f 202/1/4 198/1/4 204/1/4
f 203/1/4 202/1/4 204/1/4
f 204/1/4 198/1/4 206/1/4
f 205/1/4 206/1/4 207/1/4
f 206/1/4 198/1/4 208/1/4
f 207/1/4 206/1/4 208/1/4
f 209/3/4 210/3/4 211/3/4
f 211/3/4 210/3/4 212/3/4
f 213/1/4 214/1/4 215/1/4
f 215/1/4 214/1/4 216/1/4
f 216/1/4 214/1/4 218/1/4
f 217/1/4 218/1/4 219/1/4
f 218/1/4 214/1/4 220/1/4
f 219/1/4 218/1/4 220/1/4
f 221/1/4 222/1/4 223/1/4
f 223/1/4 222/1/4 224/1/4
f 224/1/4 222/1/4 226/1/4
f 225/1/4 226/1/4 227/1/4
f 226/1/4 222/1/4 228/1/4
f 227/1/4 226/1/4 228/1/4
f 229/2/4 230/2/4 231/2/4
f 231/2/4 230/2/4 232/2/4
f 233/1/4 234/1/4 235/1/4
f 235/1/4 234/1/4 236/1/4
f 240/1/5 238/1/5 237/1/5
f 241/1/5 240/1/5 239/1/5
f 242/1/5 238/1/5 240/1/5
f 242/1/5 240/1/5 241/1/5
f 245/5/5 244/5/5 243/5/5
f 246/5/5 244/5/5 245/5/5
f 249/1/5 248/1/5 247/1/5
f 250/1/5 248/1/5 249/1/5
f 255/1/5 252/1/5 251/1/5
f 256/1/5 252/1/5 255/1/5
f 257/1/5 254/1/5 253/1/5
f 258/1/5 254/1/5 257/1/5
f 261/1/5 260/1/5 259/1/5
f 262/1/5 260/1/5 261/1/5
f 265/1/5 264/1/5 263/1/5
f 266/1/5 264/1/5 265/1/5
f 271/1/5 268/1/5 267/1/5
f 272/1/5 268/1/5 271/1/5
f 273/1/5 270/1/5 269/1/5
f 274/1/5 270/1/5 273/1/5
f 275/1/6 276/1/6 279/1/6
f 277/1/6 278/1/6 280/1/6
f 280/1/6 278/1/6 281/1/6
f 279/1/6 280/1/6 281/1/6
f 281/1/6 278/1/6 282/1/6
f 279/1/6 281/1/6 283/1/6
f 282/1/6 278/1/6 284/1/6
f 279/1/6 283/1/6 285/1/6
f 283/1/6 284/1/6 285/1/6
f 284/1/6 278/1/6 286/1/6
f 285/1/6 284/1/6 286/1/6
f 275/1/6 279/1/6 287/1/6
f 279/1/6 285/1/6 287/1/6
f 287/1/6 285/1/6 288/1/6
f 288/1/6 285/1/6 289/1/6
f 289/1/6 285/1/6 290/1/6
f 286/1/6 278/1/6 291/1/6
f 291/1/6 278/1/6 292/1/6
f 288/1/6 289/1/6 296/1/6
f 296/1/6 289/1/6 297/1/6
f 293/1/6 294/1/6 299/1/6
f 297/1/6 298/1/6 300/1/6
f 295/1/6 296/1/6 300/1/6
f 296/1/6 297/1/6 300/1/6
f 293/1/6 299/1/6 301/1/6
f 299/1/6 300/1/6 301/1/6
f 301/1/6 300/1/6 302/1/6
f 300/1/6 298/1/6 303/1/6
f 302/1/6 300/1/6 303/1/6
f 303/1/6 298/1/6 304/1/6
f 304/1/6 298/1/6 305/1/6
f 305/1/6 298/1/6 306/1/6
f 302/1/6 303/1/6 308/1/6
f 308/1/6 303/1/6 309/1/6
f 304/1/6 305/1/6 312/1/6
f 312/1/6 305/1/6 313/1/6
f 309/1/6 310/1/6 315/1/6
f 307/1/6 308/1/6 315/1/6
f 308/1/6 309/1/6 315/1/6
f 315/1/6 310/1/6 316/1/6
f 307/1/6 315/1/6 317/1/6
f 316/1/6 310/1/6 318/1/6
f 307/1/6 317/1/6 319/1/6
f 317/1/6 318/1/6 319/1/6
f 318/1/6 310/1/6 320/1/6
f 319/1/6 318/1/6 320/1/6
f 313/1/6 314/1/6 321/1/6
f 312/1/6 313/1/6 321/1/6
f 311/1/6 312/1/6 321/1/6
f 321/1/6 314/1/6 322/1/6
f 323/6/6 324/6/6 325/6/6
f 325/6/6 324/6/6 326/6/6
f 327/4/6 328/4/6 329/4/6
f 329/4/6 328/4/6 330/4/6
f 331/2/6 332/2/6 333/2/6
f 333/2/6 332/2/6 334/2/6
f 335/5/6 336/5/6 337/5/6
f 337/5/6 336/5/6 338/5/6
f 335/5/6 337/5/6 339/5/6
f 339/5/6 337/5/6 340/5/6
f 341/7/6 342/7/6 343/7/6
f 343/7/6 342/7/6 344/7/6
f 345/3/6 346/3/6 347/3/6
f 347/3/6 346/3/6 348/3/6
f 349/1/6 350/1/6 352/1/6
f 351/1/6 352/1/6 353/1/6
f 352/1/6 350/1/6 354/1/6
f 353/1/6 352/1/6 354/1/6
