# MagicaVoxel @ Ephtracy

# group
o 

# material
mtllib pat.mtl
usemtl palette

# normals
vn -1 0 0
vn 1 0 0
vn 0 0 1
vn 0 0 -1
vn 0 -1 0
vn 0 1 0

# texcoords
vt 0.396484 0.5
vt 0.705078 0.5
vt 0.841797 0.5

# verts
v 0.7 0.4 -1.8
v 0.7 0.4 -1.9
v 0.7 0.4 -3.3
v 0.7 0.4 -3.4
v 0.7 0.6 -1.9
v 0.7 0.6 -3.3
v 0.7 0.8 -1.8
v 0.7 0.8 -3.4
v 0.8 0.8 -1.9
v 0.8 0.8 -3.3
v 0.8 0.9 -1.9
v 0.8 0.9 -3.3
v 2.9 0.9 -2
v 2.9 0.9 -3.2
v 2.9 1 -2
v 2.9 1 -3.2
v 3.6 0.4 -1.8
v 3.6 0.4 -1.9
v 3.6 0.4 -3.3
v 3.6 0.4 -3.4
v 3.6 0.6 -1.8
v 3.6 0.6 -1.9
v 3.6 0.6 -3.3
v 3.6 0.6 -3.4
v 0.8 0.4 -1.8
v 0.8 0.4 -1.9
v 0.8 0.4 -3.3
v 0.8 0.4 -3.4
v 0.8 0.6 -1.8
v 0.8 0.6 -1.9
v 0.8 0.6 -3.3
v 0.8 0.6 -3.4
v 3.4 0.9 -2
v 3.4 0.9 -3.2
v 3.4 1 -2
v 3.4 1 -3.2
v 3.6 0.8 -1.9
v 3.6 0.8 -3.3
v 3.6 0.9 -1.9
v 3.6 0.9 -3.3
v 3.7 0.4 -1.8
v 3.7 0.4 -1.9
v 3.7 0.4 -3.3
v 3.7 0.4 -3.4
v 3.7 0.6 -1.9
v 3.7 0.6 -3.3
v 3.7 0.8 -1.8
v 3.7 0.8 -3.4
v 0.7 0.4 -1.8
v 0.7 0.8 -1.8
v 0.8 0.4 -1.8
v 0.8 0.6 -1.8
v 3.6 0.4 -1.8
v 3.6 0.6 -1.8
v 3.7 0.4 -1.8
v 3.7 0.8 -1.8
v 0.8 0.8 -1.9
v 0.8 0.9 -1.9
v 3.6 0.8 -1.9
v 3.6 0.9 -1.9
v 2.9 0.9 -2
v 2.9 1 -2
v 3.4 0.9 -2
v 3.4 1 -2
v 0.7 0.4 -3.3
v 0.7 0.6 -3.3
v 0.8 0.4 -3.3
v 0.8 0.6 -3.3
v 3.6 0.4 -3.3
v 3.6 0.6 -3.3
v 3.7 0.4 -3.3
v 3.7 0.6 -3.3
v 0.7 0.4 -1.9
v 0.7 0.6 -1.9
v 0.8 0.4 -1.9
v 0.8 0.6 -1.9
v 3.6 0.4 -1.9
v 3.6 0.6 -1.9
v 3.7 0.4 -1.9
v 3.7 0.6 -1.9
v 2.9 0.9 -3.2
v 2.9 1 -3.2
v 3.4 0.9 -3.2
v 3.4 1 -3.2
v 0.8 0.8 -3.3
v 0.8 0.9 -3.3
v 3.6 0.8 -3.3
v 3.6 0.9 -3.3
v 0.7 0.4 -3.4
v 0.7 0.8 -3.4
v 0.8 0.4 -3.4
v 0.8 0.6 -3.4
v 3.6 0.4 -3.4
v 3.6 0.6 -3.4
v 3.7 0.4 -3.4
v 3.7 0.8 -3.4
v 0.7 0.4 -1.8
v 0.8 0.4 -1.8
v 3.6 0.4 -1.8
v 3.7 0.4 -1.8
v 0.7 0.4 -1.9
v 0.8 0.4 -1.9
v 3.6 0.4 -1.9
v 3.7 0.4 -1.9
v 0.7 0.4 -3.3
v 0.8 0.4 -3.3
v 3.6 0.4 -3.3
v 3.7 0.4 -3.3
v 0.7 0.4 -3.4
v 0.8 0.4 -3.4
v 3.6 0.4 -3.4
v 3.7 0.4 -3.4
v 0.8 0.6 -1.8
v 3.6 0.6 -1.8
v 0.7 0.6 -1.9
v 0.8 0.6 -1.9
v 3.6 0.6 -1.9
v 3.7 0.6 -1.9
v 0.7 0.6 -3.3
v 0.8 0.6 -3.3
v 3.6 0.6 -3.3
v 3.7 0.6 -3.3
v 0.8 0.6 -3.4
v 3.6 0.6 -3.4
v 0.7 0.8 -1.8
v 3.7 0.8 -1.8
v 0.8 0.8 -1.9
v 3.6 0.8 -1.9
v 0.8 0.8 -3.3
v 3.6 0.8 -3.3
v 0.7 0.8 -3.4
v 3.7 0.8 -3.4
v 0.8 0.9 -1.9
v 3.6 0.9 -1.9
v 2.9 0.9 -2
v 3.4 0.9 -2
v 2.9 0.9 -3.2
v 3.4 0.9 -3.2
v 0.8 0.9 -3.3
v 3.6 0.9 -3.3
v 2.9 1 -2
v 3.4 1 -2
v 2.9 1 -3.2
v 3.4 1 -3.2

# faces
f 5/1/1 2/1/1 1/1/1
f 6/1/1 4/1/1 3/1/1
f 7/1/1 5/1/1 1/1/1
f 7/1/1 6/1/1 5/1/1
f 8/1/1 4/1/1 6/1/1
f 8/1/1 6/1/1 7/1/1
f 11/3/1 10/3/1 9/3/1
f 12/3/1 10/3/1 11/3/1
f 15/2/1 14/2/1 13/2/1
f 16/2/1 14/2/1 15/2/1
f 21/1/1 18/1/1 17/1/1
f 22/1/1 18/1/1 21/1/1
f 23/1/1 20/1/1 19/1/1
f 24/1/1 20/1/1 23/1/1
f 25/1/2 26/1/2 29/1/2
f 29/1/2 26/1/2 30/1/2
f 27/1/2 28/1/2 31/1/2
f 31/1/2 28/1/2 32/1/2
f 33/2/2 34/2/2 35/2/2
f 35/2/2 34/2/2 36/2/2
f 37/3/2 38/3/2 39/3/2
f 39/3/2 38/3/2 40/3/2
f 41/1/2 42/1/2 45/1/2
f 43/1/2 44/1/2 46/1/2
f 41/1/2 45/1/2 47/1/2
f 45/1/2 46/1/2 47/1/2
f 46/1/2 44/1/2 48/1/2
f 47/1/2 46/1/2 48/1/2
f 51/1/3 50/1/3 49/1/3
f 52/1/3 50/1/3 51/1/3
f 54/1/3 50/1/3 52/1/3
f 55/1/3 54/1/3 53/1/3
f 56/1/3 50/1/3 54/1/3
f 56/1/3 54/1/3 55/1/3
f 59/3/3 58/3/3 57/3/3
f 60/3/3 58/3/3 59/3/3
f 63/2/3 62/2/3 61/2/3
f 64/2/3 62/2/3 63/2/3
f 67/1/3 66/1/3 65/1/3
f 68/1/3 66/1/3 67/1/3
f 71/1/3 70/1/3 69/1/3
f 72/1/3 70/1/3 71/1/3
f 73/1/4 74/1/4 75/1/4
f 75/1/4 74/1/4 76/1/4
f 77/1/4 78/1/4 79/1/4
f 79/1/4 78/1/4 80/1/4
f 81/2/4 82/2/4 83/2/4
f 83/2/4 82/2/4 84/2/4
f 85/3/4 86/3/4 87/3/4
f 87/3/4 86/3/4 88/3/4
f 89/1/4 90/1/4 91/1/4
f 91/1/4 90/1/4 92/1/4
f 92/1/4 90/1/4 94/1/4
f 93/1/4 94/1/4 95/1/4
f 94/1/4 90/1/4 96/1/4
f 95/1/4 94/1/4 96/1/4
f 101/1/5 98/1/5 97/1/5
f 102/1/5 98/1/5 101/1/5
f 103/1/5 100/1/5 99/1/5
f 104/1/5 100/1/5 103/1/5
f 109/1/5 106/1/5 105/1/5
f 110/1/5 106/1/5 109/1/5
f 111/1/5 108/1/5 107/1/5
f 112/1/5 108/1/5 111/1/5
f 116/1/5 114/1/5 113/1/5
f 117/1/5 114/1/5 116/1/5
f 119/1/5 116/1/5 115/1/5
f 119/1/5 118/1/5 117/1/5
f 119/1/5 117/1/5 116/1/5
f 120/1/5 118/1/5 119/1/5
f 121/1/5 118/1/5 120/1/5
f 122/1/5 118/1/5 121/1/5
f 123/1/5 121/1/5 120/1/5
f 124/1/5 121/1/5 123/1/5
f 125/1/6 126/1/6 127/1/6
f 127/1/6 126/1/6 128/1/6
f 125/1/6 127/1/6 129/1/6
f 128/1/6 126/1/6 130/1/6
f 125/1/6 129/1/6 131/1/6
f 129/1/6 130/1/6 131/1/6
f 130/1/6 126/1/6 132/1/6
f 131/1/6 130/1/6 132/1/6
f 133/3/6 134/3/6 135/3/6
f 135/3/6 134/3/6 136/3/6
f 133/3/6 135/3/6 137/3/6
f 136/3/6 134/3/6 138/3/6
f 133/3/6 137/3/6 139/3/6
f 137/3/6 138/3/6 139/3/6
f 138/3/6 134/3/6 140/3/6
f 139/3/6 138/3/6 140/3/6
f 141/2/6 142/2/6 143/2/6
f 143/2/6 142/2/6 144/2/6
