# MagicaVoxel @ Ephtracy

# group
o 

# material
mtllib pe hol.mtl
usemtl palette

# normals
vn -1 0 0
vn 1 0 0
vn 0 0 1
vn 0 0 -1
vn 0 -1 0
vn 0 1 0

# texcoords
vt 0.162109 0.5
vt 0.216797 0.5
vt 0.248047 0.5
vt 0.255859 0.5
vt 0.537109 0.5
vt 0.900391 0.5

# verts
v 1.4 0.4 -3.1
v 1.4 0.4 -3.8
v 1.4 1.3 -3.1
v 1.4 1.3 -3.8
v 1.7 1.4 -3.3
v 1.7 1.4 -3.6
v 1.7 1.7 -3.3
v 1.7 1.7 -3.6
v 1.8 1.3 -3.3
v 1.8 1.3 -3.6
v 1.8 1.4 -3.2
v 1.8 1.4 -3.3
v 1.8 1.4 -3.6
v 1.8 1.4 -3.7
v 1.8 1.7 -3.2
v 1.8 1.7 -3.3
v 1.8 1.7 -3.6
v 1.8 1.7 -3.7
v 1.8 1.8 -3.3
v 1.8 1.8 -3.6
v 1.8 1.9 -3.4
v 1.8 1.9 -3.5
v 1.8 2 -3.4
v 1.8 2 -3.5
v 1.8 2.1 -3.3
v 1.8 2.1 -3.6
v 1.9 1.3 -3.2
v 1.9 1.3 -3.3
v 1.9 1.3 -3.6
v 1.9 1.3 -3.7
v 1.9 1.4 -3.1
v 1.9 1.4 -3.2
v 1.9 1.4 -3.3
v 1.9 1.4 -3.6
v 1.9 1.4 -3.7
v 1.9 1.4 -3.8
v 1.9 1.7 -3.1
v 1.9 1.7 -3.2
v 1.9 1.7 -3.7
v 1.9 1.7 -3.8
v 2 1.6 -3.4
v 2 1.6 -3.5
v 2 1.9 -3.4
v 2 1.9 -3.5
v 2 2 -3.4
v 2 2 -3.5
v 2 2.2 -3.4
v 2 2.2 -3.5
v 2.2 1.6 -3.2
v 2.2 1.6 -3.3
v 2.2 1.6 -3.6
v 2.2 1.6 -3.7
v 2.2 1.7 -3.2
v 2.2 1.7 -3.3
v 2.2 1.7 -3.6
v 2.2 1.7 -3.7
v 2.2 2 -3.3
v 2.2 2 -3.6
v 2.2 2.1 -3.4
v 2.2 2.1 -3.5
v 2.2 2.2 -3.4
v 2.2 2.2 -3.5
v 2.2 2.3 -3.3
v 2.2 2.3 -3.6
v 2.3 1.6 -3.3
v 2.3 1.6 -3.6
v 2.3 1.7 -3.3
v 2.3 1.7 -3.6
v 1.8 1.6 -3.3
v 1.8 1.6 -3.6
v 1.8 1.7 -3.3
v 1.8 1.7 -3.6
v 1.9 1.6 -3.2
v 1.9 1.6 -3.3
v 1.9 1.6 -3.6
v 1.9 1.6 -3.7
v 1.9 1.7 -3.2
v 1.9 1.7 -3.3
v 1.9 1.7 -3.6
v 1.9 1.7 -3.7
v 1.9 1.8 -3.3
v 1.9 1.8 -3.6
v 1.9 1.9 -3.4
v 1.9 1.9 -3.5
v 1.9 2 -3.4
v 1.9 2 -3.5
v 1.9 2.1 -3.3
v 1.9 2.1 -3.6
v 2.1 1.6 -3.4
v 2.1 1.6 -3.5
v 2.1 2.1 -3.4
v 2.1 2.1 -3.5
v 2.2 1.3 -3.2
v 2.2 1.3 -3.3
v 2.2 1.3 -3.6
v 2.2 1.3 -3.7
v 2.2 1.4 -3.1
v 2.2 1.4 -3.2
v 2.2 1.4 -3.3
v 2.2 1.4 -3.6
v 2.2 1.4 -3.7
v 2.2 1.4 -3.8
v 2.2 1.7 -3.1
v 2.2 1.7 -3.2
v 2.2 1.7 -3.7
v 2.2 1.7 -3.8
v 2.3 1.3 -3.3
v 2.3 1.3 -3.6
v 2.3 1.4 -3.2
v 2.3 1.4 -3.3
v 2.3 1.4 -3.6
v 2.3 1.4 -3.7
v 2.3 1.7 -3.2
v 2.3 1.7 -3.3
v 2.3 1.7 -3.6
v 2.3 1.7 -3.7
v 2.3 2 -3.3
v 2.3 2 -3.6
v 2.3 2.1 -3.4
v 2.3 2.1 -3.5
v 2.3 2.2 -3.4
v 2.3 2.2 -3.5
v 2.3 2.3 -3.3
v 2.3 2.3 -3.6
v 2.4 1.4 -3.3
v 2.4 1.4 -3.6
v 2.4 1.7 -3.3
v 2.4 1.7 -3.6
v 2.8 0.4 -3.1
v 2.8 0.4 -3.8
v 2.8 1.3 -3.1
v 2.8 1.3 -3.8
v 1.4 0.4 -3.1
v 1.4 1.3 -3.1
v 1.9 1.4 -3.1
v 1.9 1.7 -3.1
v 2.2 1.4 -3.1
v 2.2 1.7 -3.1
v 2.8 0.4 -3.1
v 2.8 1.3 -3.1
v 1.8 1.4 -3.2
v 1.8 1.7 -3.2
v 1.9 1.3 -3.2
v 1.9 1.4 -3.2
v 1.9 1.7 -3.2
v 2.2 1.3 -3.2
v 2.2 1.4 -3.2
v 2.2 1.7 -3.2
v 2.3 1.4 -3.2
v 2.3 1.7 -3.2
v 1.7 1.4 -3.3
v 1.7 1.7 -3.3
v 1.8 1.3 -3.3
v 1.8 1.4 -3.3
v 1.8 1.7 -3.3
v 1.8 1.8 -3.3
v 1.8 2.1 -3.3
v 1.9 1.3 -3.3
v 1.9 1.4 -3.3
v 1.9 1.8 -3.3
v 1.9 2.1 -3.3
v 2.2 1.3 -3.3
v 2.2 1.4 -3.3
v 2.2 2 -3.3
v 2.2 2.3 -3.3
v 2.3 1.3 -3.3
v 2.3 1.4 -3.3
v 2.3 1.7 -3.3
v 2.3 2 -3.3
v 2.3 2.3 -3.3
v 2.4 1.4 -3.3
v 2.4 1.7 -3.3
v 1.9 1.9 -3.4
v 1.9 2 -3.4
v 2 1.6 -3.4
v 2 1.9 -3.4
v 2 2 -3.4
v 2 2.2 -3.4
v 2.1 1.6 -3.4
v 2.1 2.1 -3.4
v 2.2 2.1 -3.4
v 2.2 2.2 -3.4
v 1.8 1.6 -3.6
v 1.8 1.7 -3.6
v 1.9 1.6 -3.6
v 1.9 1.7 -3.6
v 2.2 1.6 -3.6
v 2.2 1.7 -3.6
v 2.3 1.6 -3.6
v 2.3 1.7 -3.6
v 1.9 1.6 -3.7
v 1.9 1.7 -3.7
v 2.2 1.6 -3.7
v 2.2 1.7 -3.7
v 1.9 1.6 -3.2
v 1.9 1.7 -3.2
v 2.2 1.6 -3.2
v 2.2 1.7 -3.2
v 1.8 1.6 -3.3
v 1.8 1.7 -3.3
v 1.9 1.6 -3.3
v 1.9 1.7 -3.3
v 2.2 1.6 -3.3
v 2.2 1.7 -3.3
v 2.3 1.6 -3.3
v 2.3 1.7 -3.3
v 1.9 1.9 -3.5
v 1.9 2 -3.5
v 2 1.6 -3.5
v 2 1.9 -3.5
v 2 2 -3.5
v 2 2.2 -3.5
v 2.1 1.6 -3.5
v 2.1 2.1 -3.5
v 2.2 2.1 -3.5
v 2.2 2.2 -3.5
v 1.7 1.4 -3.6
v 1.7 1.7 -3.6
v 1.8 1.3 -3.6
v 1.8 1.4 -3.6
v 1.8 1.7 -3.6
v 1.8 1.8 -3.6
v 1.8 2.1 -3.6
v 1.9 1.3 -3.6
v 1.9 1.4 -3.6
v 1.9 1.8 -3.6
v 1.9 2.1 -3.6
v 2.2 1.3 -3.6
v 2.2 1.4 -3.6
v 2.2 2 -3.6
v 2.2 2.3 -3.6
v 2.3 1.3 -3.6
v 2.3 1.4 -3.6
v 2.3 1.7 -3.6
v 2.3 2 -3.6
v 2.3 2.3 -3.6
v 2.4 1.4 -3.6
v 2.4 1.7 -3.6
v 1.8 1.4 -3.7
v 1.8 1.7 -3.7
v 1.9 1.3 -3.7
v 1.9 1.4 -3.7
v 1.9 1.7 -3.7
v 2.2 1.3 -3.7
v 2.2 1.4 -3.7
v 2.2 1.7 -3.7
v 2.3 1.4 -3.7
v 2.3 1.7 -3.7
v 1.4 0.4 -3.8
v 1.4 1.3 -3.8
v 1.9 1.4 -3.8
v 1.9 1.7 -3.8
v 2.2 1.4 -3.8
v 2.2 1.7 -3.8
v 2.8 0.4 -3.8
v 2.8 1.3 -3.8
v 1.4 0.4 -3.1
v 2.8 0.4 -3.1
v 1.4 0.4 -3.8
v 2.8 0.4 -3.8
v 1.9 1.4 -3.1
v 2.2 1.4 -3.1
v 1.8 1.4 -3.2
v 1.9 1.4 -3.2
v 2.2 1.4 -3.2
v 2.3 1.4 -3.2
v 1.7 1.4 -3.3
v 1.8 1.4 -3.3
v 1.9 1.4 -3.3
v 2.2 1.4 -3.3
v 2.3 1.4 -3.3
v 2.4 1.4 -3.3
v 1.7 1.4 -3.6
v 1.8 1.4 -3.6
v 1.9 1.4 -3.6
v 2.2 1.4 -3.6
v 2.3 1.4 -3.6
v 2.4 1.4 -3.6
v 1.8 1.4 -3.7
v 1.9 1.4 -3.7
v 2.2 1.4 -3.7
v 2.3 1.4 -3.7
v 1.9 1.4 -3.8
v 2.2 1.4 -3.8
v 1.8 1.8 -3.3
v 1.9 1.8 -3.3
v 1.8 1.8 -3.6
v 1.9 1.8 -3.6
v 1.9 1.9 -3.4
v 2 1.9 -3.4
v 1.9 1.9 -3.5
v 2 1.9 -3.5
v 2.2 2 -3.3
v 2.3 2 -3.3
v 2.2 2 -3.6
v 2.3 2 -3.6
v 2.1 2.1 -3.4
v 2.2 2.1 -3.4
v 2.1 2.1 -3.5
v 2.2 2.1 -3.5
v 1.4 1.3 -3.1
v 2.8 1.3 -3.1
v 1.9 1.3 -3.2
v 2.2 1.3 -3.2
v 1.8 1.3 -3.3
v 1.9 1.3 -3.3
v 2.2 1.3 -3.3
v 2.3 1.3 -3.3
v 1.8 1.3 -3.6
v 1.9 1.3 -3.6
v 2.2 1.3 -3.6
v 2.3 1.3 -3.6
v 1.9 1.3 -3.7
v 2.2 1.3 -3.7
v 1.4 1.3 -3.8
v 2.8 1.3 -3.8
v 1.9 1.6 -3.2
v 2.2 1.6 -3.2
v 1.8 1.6 -3.3
v 1.9 1.6 -3.3
v 2.2 1.6 -3.3
v 2.3 1.6 -3.3
v 2 1.6 -3.4
v 2.1 1.6 -3.4
v 2 1.6 -3.5
v 2.1 1.6 -3.5
v 1.8 1.6 -3.6
v 1.9 1.6 -3.6
v 2.2 1.6 -3.6
v 2.3 1.6 -3.6
v 1.9 1.6 -3.7
v 2.2 1.6 -3.7
v 1.9 1.7 -3.1
v 2.2 1.7 -3.1
v 1.8 1.7 -3.2
v 1.9 1.7 -3.2
v 2.2 1.7 -3.2
v 2.3 1.7 -3.2
v 1.7 1.7 -3.3
v 1.8 1.7 -3.3
v 1.9 1.7 -3.3
v 2.2 1.7 -3.3
v 2.3 1.7 -3.3
v 2.4 1.7 -3.3
v 1.7 1.7 -3.6
v 1.8 1.7 -3.6
v 1.9 1.7 -3.6
v 2.2 1.7 -3.6
v 2.3 1.7 -3.6
v 2.4 1.7 -3.6
v 1.8 1.7 -3.7
v 1.9 1.7 -3.7
v 2.2 1.7 -3.7
v 2.3 1.7 -3.7
v 1.9 1.7 -3.8
v 2.2 1.7 -3.8
v 1.9 2 -3.4
v 2 2 -3.4
v 1.9 2 -3.5
v 2 2 -3.5
v 1.8 2.1 -3.3
v 1.9 2.1 -3.3
v 1.8 2.1 -3.6
v 1.9 2.1 -3.6
v 2 2.2 -3.4
v 2.2 2.2 -3.4
v 2 2.2 -3.5
v 2.2 2.2 -3.5
v 2.2 2.3 -3.3
v 2.3 2.3 -3.3
v 2.2 2.3 -3.6
v 2.3 2.3 -3.6

# faces
f 3/5/1 2/5/1 1/5/1
f 4/5/1 2/5/1 3/5/1
f 7/4/1 6/4/1 5/4/1
f 8/4/1 6/4/1 7/4/1
f 12/4/1 10/4/1 9/4/1
f 13/4/1 10/4/1 12/4/1
f 15/4/1 12/4/1 11/4/1
f 16/4/1 12/4/1 15/4/1
f 17/4/1 14/4/1 13/4/1
f 18/4/1 14/4/1 17/4/1
f 21/3/1 20/3/1 19/3/1
f 22/3/1 20/3/1 21/3/1
f 23/3/1 21/3/1 19/3/1
f 23/1/1 22/1/1 21/1/1
f 24/3/1 20/3/1 22/3/1
f 24/1/1 22/1/1 23/1/1
f 25/3/1 23/3/1 19/3/1
f 25/3/1 24/3/1 23/3/1
f 26/3/1 20/3/1 24/3/1
f 26/3/1 24/3/1 25/3/1
f 32/4/1 28/4/1 27/4/1
f 33/4/1 28/4/1 32/4/1
f 34/4/1 30/4/1 29/4/1
f 35/4/1 30/4/1 34/4/1
f 37/4/1 32/4/1 31/4/1
f 38/4/1 32/4/1 37/4/1
f 39/4/1 36/4/1 35/4/1
f 40/4/1 36/4/1 39/4/1
f 43/6/1 42/6/1 41/6/1
f 44/6/1 42/6/1 43/6/1
f 47/6/1 46/6/1 45/6/1
f 48/6/1 46/6/1 47/6/1
f 53/4/1 50/4/1 49/4/1
f 54/4/1 50/4/1 53/4/1
f 55/4/1 52/4/1 51/4/1
f 56/4/1 52/4/1 55/4/1
f 59/2/1 58/2/1 57/2/1
f 60/2/1 58/2/1 59/2/1
f 61/2/1 59/2/1 57/2/1
f 62/2/1 58/2/1 60/2/1
f 63/2/1 61/2/1 57/2/1
f 63/2/1 62/2/1 61/2/1
f 64/2/1 58/2/1 62/2/1
f 64/2/1 62/2/1 63/2/1
f 67/4/1 66/4/1 65/4/1
f 68/4/1 66/4/1 67/4/1
f 69/4/2 70/4/2 71/4/2
f 71/4/2 70/4/2 72/4/2
f 73/4/2 74/4/2 77/4/2
f 77/4/2 74/4/2 78/4/2
f 75/4/2 76/4/2 79/4/2
f 79/4/2 76/4/2 80/4/2
f 81/3/2 82/3/2 83/3/2
f 83/3/2 82/3/2 84/3/2
f 81/3/2 83/3/2 85/3/2
f 84/3/2 82/3/2 86/3/2
f 81/3/2 85/3/2 87/3/2
f 85/3/2 86/3/2 87/3/2
f 86/3/2 82/3/2 88/3/2
f 87/3/2 86/3/2 88/3/2
f 89/6/2 90/6/2 91/6/2
f 91/6/2 90/6/2 92/6/2
f 93/4/2 94/4/2 98/4/2
f 98/4/2 94/4/2 99/4/2
f 95/4/2 96/4/2 100/4/2
f 100/4/2 96/4/2 101/4/2
f 97/4/2 98/4/2 103/4/2
f 103/4/2 98/4/2 104/4/2
f 101/4/2 102/4/2 105/4/2
f 105/4/2 102/4/2 106/4/2
f 107/4/2 108/4/2 110/4/2
f 110/4/2 108/4/2 111/4/2
f 109/4/2 110/4/2 113/4/2
f 113/4/2 110/4/2 114/4/2
f 111/4/2 112/4/2 115/4/2
f 115/4/2 112/4/2 116/4/2
f 117/2/2 118/2/2 119/2/2
f 119/2/2 118/2/2 120/2/2
f 117/2/2 119/2/2 121/2/2
f 119/1/2 120/1/2 121/1/2
f 120/2/2 118/2/2 122/2/2
f 121/1/2 120/1/2 122/1/2
f 117/2/2 121/2/2 123/2/2
f 121/2/2 122/2/2 123/2/2
f 122/2/2 118/2/2 124/2/2
f 123/2/2 122/2/2 124/2/2
f 125/4/2 126/4/2 127/4/2
f 127/4/2 126/4/2 128/4/2
f 129/5/2 130/5/2 131/5/2
f 131/5/2 130/5/2 132/5/2
f 137/4/3 136/4/3 135/4/3
f 138/4/3 136/4/3 137/4/3
f 139/5/3 134/5/3 133/5/3
f 140/5/3 134/5/3 139/5/3
f 144/4/3 142/4/3 141/4/3
f 145/4/3 142/4/3 144/4/3
f 146/4/3 144/4/3 143/4/3
f 147/4/3 144/4/3 146/4/3
f 149/4/3 148/4/3 147/4/3
f 150/4/3 148/4/3 149/4/3
f 154/4/3 152/4/3 151/4/3
f 155/4/3 152/4/3 154/4/3
f 158/4/3 154/4/3 153/4/3
f 159/4/3 154/4/3 158/4/3
f 160/3/3 157/3/3 156/3/3
f 161/3/3 157/3/3 160/3/3
f 166/4/3 163/4/3 162/4/3
f 167/4/3 163/4/3 166/4/3
f 169/2/3 165/2/3 164/2/3
f 170/2/3 165/2/3 169/2/3
f 171/4/3 168/4/3 167/4/3
f 172/4/3 168/4/3 171/4/3
f 176/6/3 174/6/3 173/6/3
f 177/6/3 174/6/3 176/6/3
f 179/6/3 176/6/3 175/6/3
f 179/6/3 178/6/3 177/6/3
f 179/6/3 177/6/3 176/6/3
f 180/6/3 178/6/3 179/6/3
f 181/6/3 178/6/3 180/6/3
f 182/6/3 178/6/3 181/6/3
f 185/4/3 184/4/3 183/4/3
f 186/4/3 184/4/3 185/4/3
f 189/4/3 188/4/3 187/4/3
f 190/4/3 188/4/3 189/4/3
f 193/4/3 192/4/3 191/4/3
f 194/4/3 192/4/3 193/4/3
f 195/4/4 196/4/4 197/4/4
f 197/4/4 196/4/4 198/4/4
f 199/4/4 200/4/4 201/4/4
f 201/4/4 200/4/4 202/4/4
f 203/4/4 204/4/4 205/4/4
f 205/4/4 204/4/4 206/4/4
f 207/6/4 208/6/4 210/6/4
f 210/6/4 208/6/4 211/6/4
f 209/6/4 210/6/4 213/6/4
f 211/6/4 212/6/4 213/6/4
f 210/6/4 211/6/4 213/6/4
f 213/6/4 212/6/4 214/6/4
f 214/6/4 212/6/4 215/6/4
f 215/6/4 212/6/4 216/6/4
f 217/4/4 218/4/4 220/4/4
f 220/4/4 218/4/4 221/4/4
f 219/4/4 220/4/4 224/4/4
f 224/4/4 220/4/4 225/4/4
f 222/3/4 223/3/4 226/3/4
f 226/3/4 223/3/4 227/3/4
f 228/4/4 229/4/4 232/4/4
f 232/4/4 229/4/4 233/4/4
f 230/2/4 231/2/4 235/2/4
f 235/2/4 231/2/4 236/2/4
f 233/4/4 234/4/4 237/4/4
f 237/4/4 234/4/4 238/4/4
f 239/4/4 240/4/4 242/4/4
f 242/4/4 240/4/4 243/4/4
f 241/4/4 242/4/4 244/4/4
f 244/4/4 242/4/4 245/4/4
f 245/4/4 246/4/4 247/4/4
f 247/4/4 246/4/4 248/4/4
f 251/4/4 252/4/4 253/4/4
f 253/4/4 252/4/4 254/4/4
f 249/5/4 250/5/4 255/5/4
f 255/5/4 250/5/4 256/5/4
f 259/5/5 258/5/5 257/5/5
f 260/5/5 258/5/5 259/5/5
f 264/4/5 262/4/5 261/4/5
f 265/4/5 262/4/5 264/4/5
f 268/4/5 264/4/5 263/4/5
f 269/4/5 264/4/5 268/4/5
f 270/4/5 266/4/5 265/4/5
f 271/4/5 266/4/5 270/4/5
f 273/4/5 268/4/5 267/4/5
f 274/4/5 268/4/5 273/4/5
f 277/4/5 272/4/5 271/4/5
f 278/4/5 272/4/5 277/4/5
f 279/4/5 275/4/5 274/4/5
f 280/4/5 275/4/5 279/4/5
f 281/4/5 277/4/5 276/4/5
f 282/4/5 277/4/5 281/4/5
f 283/4/5 281/4/5 280/4/5
f 284/4/5 281/4/5 283/4/5
f 287/3/5 286/3/5 285/3/5
f 288/3/5 286/3/5 287/3/5
f 291/6/5 290/6/5 289/6/5
f 292/6/5 290/6/5 291/6/5
f 295/2/5 294/2/5 293/2/5
f 296/2/5 294/2/5 295/2/5
f 299/6/5 298/6/5 297/6/5
f 300/6/5 298/6/5 299/6/5
f 301/5/6 302/5/6 303/5/6
f 303/5/6 302/5/6 304/5/6
f 301/5/6 303/5/6 305/5/6
f 305/5/6 303/5/6 306/5/6
f 304/5/6 302/5/6 307/5/6
f 307/5/6 302/5/6 308/5/6
f 301/5/6 305/5/6 309/5/6
f 308/5/6 302/5/6 312/5/6
f 309/5/6 310/5/6 313/5/6
f 311/5/6 312/5/6 314/5/6
f 309/5/6 313/5/6 315/5/6
f 313/5/6 314/5/6 315/5/6
f 301/5/6 309/5/6 315/5/6
f 314/5/6 312/5/6 316/5/6
f 315/5/6 314/5/6 316/5/6
f 312/5/6 302/5/6 316/5/6
f 317/5/6 318/5/6 320/5/6
f 320/5/6 318/5/6 321/5/6
f 319/5/6 320/5/6 323/5/6
f 321/5/6 322/5/6 323/5/6
f 320/5/6 321/5/6 323/5/6
f 323/5/6 322/5/6 324/5/6
f 319/5/6 323/5/6 325/5/6
f 324/5/6 322/5/6 326/5/6
f 319/5/6 325/5/6 327/5/6
f 325/5/6 326/5/6 327/5/6
f 327/5/6 326/5/6 328/5/6
f 326/5/6 322/5/6 329/5/6
f 328/5/6 326/5/6 329/5/6
f 329/5/6 322/5/6 330/5/6
f 328/5/6 329/5/6 331/5/6
f 331/5/6 329/5/6 332/5/6
f 333/4/6 334/4/6 336/4/6
f 336/4/6 334/4/6 337/4/6
f 335/4/6 336/4/6 340/4/6
f 340/4/6 336/4/6 341/4/6
f 337/4/6 338/4/6 342/4/6
f 342/4/6 338/4/6 343/4/6
f 339/4/6 340/4/6 345/4/6
f 345/4/6 340/4/6 346/4/6
f 343/4/6 344/4/6 349/4/6
f 349/4/6 344/4/6 350/4/6
f 346/4/6 347/4/6 351/4/6
f 351/4/6 347/4/6 352/4/6
f 348/4/6 349/4/6 353/4/6
f 353/4/6 349/4/6 354/4/6
f 352/4/6 353/4/6 355/4/6
f 355/4/6 353/4/6 356/4/6
f 357/6/6 358/6/6 359/6/6
f 359/6/6 358/6/6 360/6/6
f 361/3/6 362/3/6 363/3/6
f 363/3/6 362/3/6 364/3/6
f 365/6/6 366/6/6 367/6/6
f 367/6/6 366/6/6 368/6/6
f 369/2/6 370/2/6 371/2/6
f 371/2/6 370/2/6 372/2/6
