# MagicaVoxel @ Ephtracy

# group
o 

# material
mtllib tv off.mtl
usemtl palette

# normals
vn -1 0 0
vn 1 0 0
vn 0 0 1
vn 0 0 -1
vn 0 -1 0
vn 0 1 0

# texcoords
vt 0.974609 0.5
vt 0.986328 0.5
vt 0.990234 0.5
vt 0.994141 0.5

# verts
v 0 0.6 -0.9
v 0 0.6 -1.1
v 0 1.8 -0.9
v 0 1.8 -1.1
v 0.1 0.7 -1.1
v 0.1 0.7 -1.2
v 0.1 1.7 -1.1
v 0.1 1.7 -1.2
v 0.8 0.4 -0.9
v 0.8 0.4 -1.2
v 0.8 0.5 -0.9
v 0.8 0.5 -1.2
v 0.9 0.4 -0.8
v 0.9 0.4 -0.9
v 0.9 0.4 -1.2
v 0.9 0.4 -1.3
v 0.9 0.5 -0.8
v 0.9 0.5 -0.9
v 0.9 0.5 -1.2
v 0.9 0.5 -1.3
v 0.9 0.6 -0.9
v 0.9 0.6 -1.1
v 0.9 0.6 -1.2
v 2 0.7 -0.9
v 2 0.7 -1
v 2 1.7 -0.9
v 2 1.7 -1
v 0.1 0.7 -0.9
v 0.1 0.7 -1
v 0.1 1.7 -0.9
v 0.1 1.7 -1
v 1.2 0.4 -0.8
v 1.2 0.4 -0.9
v 1.2 0.4 -1.2
v 1.2 0.4 -1.3
v 1.2 0.5 -0.8
v 1.2 0.5 -0.9
v 1.2 0.5 -1.2
v 1.2 0.5 -1.3
v 1.2 0.6 -0.9
v 1.2 0.6 -1.1
v 1.2 0.6 -1.2
v 1.3 0.4 -0.9
v 1.3 0.4 -1.2
v 1.3 0.5 -0.9
v 1.3 0.5 -1.2
v 2 0.7 -1.1
v 2 0.7 -1.2
v 2 1.7 -1.1
v 2 1.7 -1.2
v 2.1 0.6 -0.9
v 2.1 0.6 -1.1
v 2.1 1.8 -0.9
v 2.1 1.8 -1.1
v 0.9 0.4 -0.8
v 0.9 0.5 -0.8
v 1.2 0.4 -0.8
v 1.2 0.5 -0.8
v 0 0.6 -0.9
v 0 1.8 -0.9
v 0.1 0.7 -0.9
v 0.1 1.7 -0.9
v 0.8 0.4 -0.9
v 0.8 0.5 -0.9
v 0.9 0.4 -0.9
v 0.9 0.5 -0.9
v 0.9 0.6 -0.9
v 1.2 0.4 -0.9
v 1.2 0.5 -0.9
v 1.2 0.6 -0.9
v 1.3 0.4 -0.9
v 1.3 0.5 -0.9
v 2 0.7 -0.9
v 2 1.7 -0.9
v 2.1 0.6 -0.9
v 2.1 1.8 -0.9
v 0.1 0.7 -1
v 0.1 1.7 -1
v 2 0.7 -1
v 2 1.7 -1
v 0 0.6 -1.1
v 0 1.8 -1.1
v 0.1 0.7 -1.1
v 0.1 1.7 -1.1
v 0.9 0.6 -1.1
v 1.2 0.6 -1.1
v 2 0.7 -1.1
v 2 1.7 -1.1
v 2.1 0.6 -1.1
v 2.1 1.8 -1.1
v 0.1 0.7 -1.2
v 0.1 1.7 -1.2
v 0.8 0.4 -1.2
v 0.8 0.5 -1.2
v 0.9 0.4 -1.2
v 0.9 0.5 -1.2
v 0.9 0.6 -1.2
v 1.2 0.4 -1.2
v 1.2 0.5 -1.2
v 1.2 0.6 -1.2
v 1.3 0.4 -1.2
v 1.3 0.5 -1.2
v 2 0.7 -1.2
v 2 1.7 -1.2
v 0.9 0.4 -1.3
v 0.9 0.5 -1.3
v 1.2 0.4 -1.3
v 1.2 0.5 -1.3
v 0.9 0.4 -0.8
v 1.2 0.4 -0.8
v 0.8 0.4 -0.9
v 0.9 0.4 -0.9
v 1.2 0.4 -0.9
v 1.3 0.4 -0.9
v 1 0.4 -1
v 1.1 0.4 -1
v 1 0.4 -1.1
v 1.1 0.4 -1.1
v 0.8 0.4 -1.2
v 0.9 0.4 -1.2
v 1.2 0.4 -1.2
v 1.3 0.4 -1.2
v 0.9 0.4 -1.3
v 1.2 0.4 -1.3
v 0 0.6 -0.9
v 0.9 0.6 -0.9
v 1.2 0.6 -0.9
v 2.1 0.6 -0.9
v 0 0.6 -1.1
v 0.9 0.6 -1.1
v 1.2 0.6 -1.1
v 2.1 0.6 -1.1
v 0.1 0.7 -1.1
v 2 0.7 -1.1
v 0.1 0.7 -1.2
v 2 0.7 -1.2
v 0.1 1.7 -0.9
v 2 1.7 -0.9
v 0.1 1.7 -1
v 2 1.7 -1
v 0.9 0.5 -0.8
v 1.2 0.5 -0.8
v 0.8 0.5 -0.9
v 0.9 0.5 -0.9
v 1.2 0.5 -0.9
v 1.3 0.5 -0.9
v 0.8 0.5 -1.2
v 0.9 0.5 -1.2
v 1.2 0.5 -1.2
v 1.3 0.5 -1.2
v 0.9 0.5 -1.3
v 1.2 0.5 -1.3
v 0.9 0.6 -1.1
v 1.2 0.6 -1.1
v 0.9 0.6 -1.2
v 1.2 0.6 -1.2
v 0.1 0.7 -0.9
v 2 0.7 -0.9
v 0.1 0.7 -1
v 2 0.7 -1
v 0.1 1.7 -1.1
v 2 1.7 -1.1
v 0.1 1.7 -1.2
v 2 1.7 -1.2
v 0 1.8 -0.9
v 2.1 1.8 -0.9
v 0 1.8 -1.1
v 2.1 1.8 -1.1

# faces
f 3/3/1 2/3/1 1/3/1
f 4/3/1 2/3/1 3/3/1
f 7/3/1 6/3/1 5/3/1
f 8/3/1 6/3/1 7/3/1
f 11/1/1 10/1/1 9/1/1
f 12/1/1 10/1/1 11/1/1
f 17/1/1 14/1/1 13/1/1
f 18/1/1 14/1/1 17/1/1
f 19/1/1 16/1/1 15/1/1
f 20/1/1 16/1/1 19/1/1
f 21/2/1 19/2/1 18/2/1
f 22/2/1 19/2/1 21/2/1
f 23/2/1 19/2/1 22/2/1
f 26/3/1 25/3/1 24/3/1
f 27/3/1 25/3/1 26/3/1
f 28/3/2 29/3/2 30/3/2
f 30/3/2 29/3/2 31/3/2
f 32/1/2 33/1/2 36/1/2
f 36/1/2 33/1/2 37/1/2
f 34/1/2 35/1/2 38/1/2
f 38/1/2 35/1/2 39/1/2
f 37/2/2 38/2/2 40/2/2
f 40/2/2 38/2/2 41/2/2
f 41/2/2 38/2/2 42/2/2
f 43/1/2 44/1/2 45/1/2
f 45/1/2 44/1/2 46/1/2
f 47/3/2 48/3/2 49/3/2
f 49/3/2 48/3/2 50/3/2
f 51/3/2 52/3/2 53/3/2
f 53/3/2 52/3/2 54/3/2
f 57/1/3 56/1/3 55/1/3
f 58/1/3 56/1/3 57/1/3
f 61/3/3 60/3/3 59/3/3
f 62/3/3 60/3/3 61/3/3
f 65/1/3 64/1/3 63/1/3
f 66/1/3 64/1/3 65/1/3
f 67/3/3 61/3/3 59/3/3
f 69/2/3 67/2/3 66/2/3
f 70/3/3 61/3/3 67/3/3
f 70/2/3 67/2/3 69/2/3
f 71/1/3 69/1/3 68/1/3
f 72/1/3 69/1/3 71/1/3
f 73/3/3 61/3/3 70/3/3
f 74/3/3 60/3/3 62/3/3
f 75/3/3 73/3/3 70/3/3
f 75/3/3 74/3/3 73/3/3
f 76/3/3 60/3/3 74/3/3
f 76/3/3 74/3/3 75/3/3
f 79/4/3 78/4/3 77/4/3
f 80/4/3 78/4/3 79/4/3
f 81/3/4 82/3/4 83/3/4
f 83/3/4 82/3/4 84/3/4
f 81/3/4 83/3/4 85/3/4
f 85/3/4 83/3/4 86/3/4
f 86/3/4 83/3/4 87/3/4
f 84/3/4 82/3/4 88/3/4
f 86/3/4 87/3/4 89/3/4
f 87/3/4 88/3/4 89/3/4
f 88/3/4 82/3/4 90/3/4
f 89/3/4 88/3/4 90/3/4
f 93/1/4 94/1/4 95/1/4
f 95/1/4 94/1/4 96/1/4
f 96/2/4 97/2/4 99/2/4
f 99/2/4 97/2/4 100/2/4
f 98/1/4 99/1/4 101/1/4
f 101/1/4 99/1/4 102/1/4
f 91/3/4 92/3/4 103/3/4
f 103/3/4 92/3/4 104/3/4
f 105/1/4 106/1/4 107/1/4
f 107/1/4 106/1/4 108/1/4
f 112/1/5 110/1/5 109/1/5
f 113/1/5 110/1/5 112/1/5
f 115/1/5 112/1/5 111/1/5
f 115/1/5 114/1/5 113/1/5
f 115/1/5 113/1/5 112/1/5
f 116/1/5 114/1/5 115/1/5
f 117/1/5 115/1/5 111/1/5
f 117/2/5 116/2/5 115/2/5
f 118/1/5 114/1/5 116/1/5
f 118/2/5 116/2/5 117/2/5
f 119/1/5 117/1/5 111/1/5
f 119/1/5 118/1/5 117/1/5
f 120/1/5 118/1/5 119/1/5
f 121/1/5 114/1/5 118/1/5
f 121/1/5 118/1/5 120/1/5
f 122/1/5 114/1/5 121/1/5
f 123/1/5 121/1/5 120/1/5
f 124/1/5 121/1/5 123/1/5
f 129/3/5 126/3/5 125/3/5
f 130/3/5 126/3/5 129/3/5
f 131/3/5 128/3/5 127/3/5
f 132/3/5 128/3/5 131/3/5
f 135/3/5 134/3/5 133/3/5
f 136/3/5 134/3/5 135/3/5
f 139/3/5 138/3/5 137/3/5
f 140/3/5 138/3/5 139/3/5
f 141/1/6 142/1/6 144/1/6
f 144/1/6 142/1/6 145/1/6
f 143/1/6 144/1/6 147/1/6
f 147/1/6 144/1/6 148/1/6
f 145/1/6 146/1/6 149/1/6
f 149/1/6 146/1/6 150/1/6
f 148/1/6 149/1/6 151/1/6
f 151/1/6 149/1/6 152/1/6
f 153/2/6 154/2/6 155/2/6
f 155/2/6 154/2/6 156/2/6
f 157/3/6 158/3/6 159/3/6
f 159/3/6 158/3/6 160/3/6
f 161/3/6 162/3/6 163/3/6
f 163/3/6 162/3/6 164/3/6
f 165/3/6 166/3/6 167/3/6
f 167/3/6 166/3/6 168/3/6
