# MagicaVoxel @ Ephtracy

# group
o 

# material
mtllib tv on.mtl
usemtl palette

# normals
vn -1 0 0
vn 1 0 0
vn 0 0 1
vn 0 0 -1
vn 0 -1 0
vn 0 1 0

# texcoords
vt 0.162109 0.5
vt 0.259766 0.5
vt 0.822266 0.5
vt 0.841797 0.5
vt 0.880859 0.5
vt 0.958984 0.5
vt 0.974609 0.5
vt 0.986328 0.5
vt 0.990234 0.5
vt 0.994141 0.5

# verts
v 0 0.6 -0.9
v 0 0.6 -1.1
v 0 1.8 -0.9
v 0 1.8 -1.1
v 0.1 0.7 -1.1
v 0.1 0.7 -1.2
v 0.1 1.7 -1.1
v 0.1 1.7 -1.2
v 0.8 0.4 -0.9
v 0.8 0.4 -1.2
v 0.8 0.5 -0.9
v 0.8 0.5 -1.2
v 0.9 0.4 -0.8
v 0.9 0.4 -0.9
v 0.9 0.4 -1.2
v 0.9 0.4 -1.3
v 0.9 0.5 -0.8
v 0.9 0.5 -0.9
v 0.9 0.5 -1.2
v 0.9 0.5 -1.3
v 0.9 0.6 -0.9
v 0.9 0.6 -1.1
v 0.9 0.6 -1.2
v 2 0.7 -0.9
v 2 0.7 -1
v 2 1.7 -0.9
v 2 1.7 -1
v 0.1 0.7 -0.9
v 0.1 0.7 -1
v 0.1 1.7 -0.9
v 0.1 1.7 -1
v 1.2 0.4 -0.8
v 1.2 0.4 -0.9
v 1.2 0.4 -1.2
v 1.2 0.4 -1.3
v 1.2 0.5 -0.8
v 1.2 0.5 -0.9
v 1.2 0.5 -1.2
v 1.2 0.5 -1.3
v 1.2 0.6 -0.9
v 1.2 0.6 -1.1
v 1.2 0.6 -1.2
v 1.3 0.4 -0.9
v 1.3 0.4 -1.2
v 1.3 0.5 -0.9
v 1.3 0.5 -1.2
v 2 0.7 -1.1
v 2 0.7 -1.2
v 2 1.7 -1.1
v 2 1.7 -1.2
v 2.1 0.6 -0.9
v 2.1 0.6 -1.1
v 2.1 1.8 -0.9
v 2.1 1.8 -1.1
v 0.9 0.4 -0.8
v 0.9 0.5 -0.8
v 1.2 0.4 -0.8
v 1.2 0.5 -0.8
v 0 0.6 -0.9
v 0 1.8 -0.9
v 0.1 0.7 -0.9
v 0.1 1.7 -0.9
v 0.8 0.4 -0.9
v 0.8 0.5 -0.9
v 0.9 0.4 -0.9
v 0.9 0.5 -0.9
v 0.9 0.6 -0.9
v 1.2 0.4 -0.9
v 1.2 0.5 -0.9
v 1.2 0.6 -0.9
v 1.3 0.4 -0.9
v 1.3 0.5 -0.9
v 2 0.7 -0.9
v 2 1.7 -0.9
v 2.1 0.6 -0.9
v 2.1 1.8 -0.9
v 0.1 0.7 -1
v 0.1 1.7 -1
v 0.4 0.7 -1
v 0.4 1.7 -1
v 0.7 0.7 -1
v 0.7 1.7 -1
v 1 0.7 -1
v 1 1.7 -1
v 1.3 0.7 -1
v 1.3 1.7 -1
v 1.6 0.7 -1
v 1.6 1.7 -1
v 1.8 0.7 -1
v 1.8 1.7 -1
v 2 0.7 -1
v 2 1.7 -1
v 0 0.6 -1.1
v 0 1.8 -1.1
v 0.1 0.7 -1.1
v 0.1 1.7 -1.1
v 0.9 0.6 -1.1
v 1.2 0.6 -1.1
v 2 0.7 -1.1
v 2 1.7 -1.1
v 2.1 0.6 -1.1
v 2.1 1.8 -1.1
v 0.1 0.7 -1.2
v 0.1 1.7 -1.2
v 0.8 0.4 -1.2
v 0.8 0.5 -1.2
v 0.9 0.4 -1.2
v 0.9 0.5 -1.2
v 0.9 0.6 -1.2
v 1.2 0.4 -1.2
v 1.2 0.5 -1.2
v 1.2 0.6 -1.2
v 1.3 0.4 -1.2
v 1.3 0.5 -1.2
v 2 0.7 -1.2
v 2 1.7 -1.2
v 0.9 0.4 -1.3
v 0.9 0.5 -1.3
v 1.2 0.4 -1.3
v 1.2 0.5 -1.3
v 0.9 0.4 -0.8
v 1.2 0.4 -0.8
v 0.8 0.4 -0.9
v 0.9 0.4 -0.9
v 1.2 0.4 -0.9
v 1.3 0.4 -0.9
v 1 0.4 -1
v 1.1 0.4 -1
v 1 0.4 -1.1
v 1.1 0.4 -1.1
v 0.8 0.4 -1.2
v 0.9 0.4 -1.2
v 1.2 0.4 -1.2
v 1.3 0.4 -1.2
v 0.9 0.4 -1.3
v 1.2 0.4 -1.3
v 0 0.6 -0.9
v 0.9 0.6 -0.9
v 1.2 0.6 -0.9
v 2.1 0.6 -0.9
v 0 0.6 -1.1
v 0.9 0.6 -1.1
v 1.2 0.6 -1.1
v 2.1 0.6 -1.1
v 0.1 0.7 -1.1
v 2 0.7 -1.1
v 0.1 0.7 -1.2
v 2 0.7 -1.2
v 0.1 1.7 -0.9
v 2 1.7 -0.9
v 0.1 1.7 -1
v 0.4 1.7 -1
v 0.7 1.7 -1
v 1 1.7 -1
v 1.3 1.7 -1
v 1.6 1.7 -1
v 1.8 1.7 -1
v 2 1.7 -1
v 0.9 0.5 -0.8
v 1.2 0.5 -0.8
v 0.8 0.5 -0.9
v 0.9 0.5 -0.9
v 1.2 0.5 -0.9
v 1.3 0.5 -0.9
v 0.8 0.5 -1.2
v 0.9 0.5 -1.2
v 1.2 0.5 -1.2
v 1.3 0.5 -1.2
v 0.9 0.5 -1.3
v 1.2 0.5 -1.3
v 0.9 0.6 -1.1
v 1.2 0.6 -1.1
v 0.9 0.6 -1.2
v 1.2 0.6 -1.2
v 0.1 0.7 -0.9
v 2 0.7 -0.9
v 0.1 0.7 -1
v 0.4 0.7 -1
v 0.7 0.7 -1
v 1 0.7 -1
v 1.3 0.7 -1
v 1.6 0.7 -1
v 1.8 0.7 -1
v 2 0.7 -1
v 0.1 1.7 -1.1
v 2 1.7 -1.1
v 0.1 1.7 -1.2
v 2 1.7 -1.2
v 0 1.8 -0.9
v 2.1 1.8 -0.9
v 0 1.8 -1.1
v 2.1 1.8 -1.1

# faces
f 3/9/1 2/9/1 1/9/1
f 4/9/1 2/9/1 3/9/1
f 7/9/1 6/9/1 5/9/1
f 8/9/1 6/9/1 7/9/1
f 11/7/1 10/7/1 9/7/1
f 12/7/1 10/7/1 11/7/1
f 17/7/1 14/7/1 13/7/1
f 18/7/1 14/7/1 17/7/1
f 19/7/1 16/7/1 15/7/1
f 20/7/1 16/7/1 19/7/1
f 21/8/1 19/8/1 18/8/1
f 22/8/1 19/8/1 21/8/1
f 23/8/1 19/8/1 22/8/1
f 26/9/1 25/9/1 24/9/1
f 27/9/1 25/9/1 26/9/1
f 28/9/2 29/9/2 30/9/2
f 30/9/2 29/9/2 31/9/2
f 32/7/2 33/7/2 36/7/2
f 36/7/2 33/7/2 37/7/2
f 34/7/2 35/7/2 38/7/2
f 38/7/2 35/7/2 39/7/2
f 37/8/2 38/8/2 40/8/2
f 40/8/2 38/8/2 41/8/2
f 41/8/2 38/8/2 42/8/2
f 43/7/2 44/7/2 45/7/2
f 45/7/2 44/7/2 46/7/2
f 47/9/2 48/9/2 49/9/2
f 49/9/2 48/9/2 50/9/2
f 51/9/2 52/9/2 53/9/2
f 53/9/2 52/9/2 54/9/2
f 57/7/3 56/7/3 55/7/3
f 58/7/3 56/7/3 57/7/3
f 61/9/3 60/9/3 59/9/3
f 62/9/3 60/9/3 61/9/3
f 65/7/3 64/7/3 63/7/3
f 66/7/3 64/7/3 65/7/3
f 67/9/3 61/9/3 59/9/3
f 69/8/3 67/8/3 66/8/3
f 70/9/3 61/9/3 67/9/3
f 70/8/3 67/8/3 69/8/3
f 71/7/3 69/7/3 68/7/3
f 72/7/3 69/7/3 71/7/3
f 73/9/3 61/9/3 70/9/3
f 74/9/3 60/9/3 62/9/3
f 75/9/3 73/9/3 70/9/3
f 75/9/3 74/9/3 73/9/3
f 76/9/3 60/9/3 74/9/3
f 76/9/3 74/9/3 75/9/3
f 79/5/3 78/5/3 77/5/3
f 80/5/3 78/5/3 79/5/3
f 81/4/3 80/4/3 79/4/3
f 82/4/3 80/4/3 81/4/3
f 83/3/3 82/3/3 81/3/3
f 84/3/3 82/3/3 83/3/3
f 85/1/3 84/1/3 83/1/3
f 86/1/3 84/1/3 85/1/3
f 87/10/3 86/10/3 85/10/3
f 88/10/3 86/10/3 87/10/3
f 89/2/3 88/2/3 87/2/3
f 90/2/3 88/2/3 89/2/3
f 91/6/3 90/6/3 89/6/3
f 92/6/3 90/6/3 91/6/3
f 93/9/4 94/9/4 95/9/4
f 95/9/4 94/9/4 96/9/4
f 93/9/4 95/9/4 97/9/4
f 97/9/4 95/9/4 98/9/4
f 98/9/4 95/9/4 99/9/4
f 96/9/4 94/9/4 100/9/4
f 98/9/4 99/9/4 101/9/4
f 99/9/4 100/9/4 101/9/4
f 100/9/4 94/9/4 102/9/4
f 101/9/4 100/9/4 102/9/4
f 105/7/4 106/7/4 107/7/4
f 107/7/4 106/7/4 108/7/4
f 108/8/4 109/8/4 111/8/4
f 111/8/4 109/8/4 112/8/4
f 110/7/4 111/7/4 113/7/4
f 113/7/4 111/7/4 114/7/4
f 103/9/4 104/9/4 115/9/4
f 115/9/4 104/9/4 116/9/4
f 117/7/4 118/7/4 119/7/4
f 119/7/4 118/7/4 120/7/4
f 124/7/5 122/7/5 121/7/5
f 125/7/5 122/7/5 124/7/5
f 127/7/5 124/7/5 123/7/5
f 127/7/5 126/7/5 125/7/5
f 127/7/5 125/7/5 124/7/5
f 128/7/5 126/7/5 127/7/5
f 129/7/5 127/7/5 123/7/5
f 129/8/5 128/8/5 127/8/5
f 130/7/5 126/7/5 128/7/5
f 130/8/5 128/8/5 129/8/5
f 131/7/5 129/7/5 123/7/5
f 131/7/5 130/7/5 129/7/5
f 132/7/5 130/7/5 131/7/5
f 133/7/5 126/7/5 130/7/5
f 133/7/5 130/7/5 132/7/5
f 134/7/5 126/7/5 133/7/5
f 135/7/5 133/7/5 132/7/5
f 136/7/5 133/7/5 135/7/5
f 141/9/5 138/9/5 137/9/5
f 142/9/5 138/9/5 141/9/5
f 143/9/5 140/9/5 139/9/5
f 144/9/5 140/9/5 143/9/5
f 147/9/5 146/9/5 145/9/5
f 148/9/5 146/9/5 147/9/5
f 151/9/5 150/9/5 149/9/5
f 152/9/5 150/9/5 151/9/5
f 153/9/5 150/9/5 152/9/5
f 154/9/5 150/9/5 153/9/5
f 155/9/5 150/9/5 154/9/5
f 156/9/5 150/9/5 155/9/5
f 157/9/5 150/9/5 156/9/5
f 158/9/5 150/9/5 157/9/5
f 159/7/6 160/7/6 162/7/6
f 162/7/6 160/7/6 163/7/6
f 161/7/6 162/7/6 165/7/6
f 165/7/6 162/7/6 166/7/6
f 163/7/6 164/7/6 167/7/6
f 167/7/6 164/7/6 168/7/6
f 166/7/6 167/7/6 169/7/6
f 169/7/6 167/7/6 170/7/6
f 171/8/6 172/8/6 173/8/6
f 173/8/6 172/8/6 174/8/6
f 175/9/6 176/9/6 177/9/6
f 177/9/6 176/9/6 178/9/6
f 178/9/6 176/9/6 179/9/6
f 179/9/6 176/9/6 180/9/6
f 180/9/6 176/9/6 181/9/6
f 181/9/6 176/9/6 182/9/6
f 182/9/6 176/9/6 183/9/6
f 183/9/6 176/9/6 184/9/6
f 185/9/6 186/9/6 187/9/6
f 187/9/6 186/9/6 188/9/6
f 189/9/6 190/9/6 191/9/6
f 191/9/6 190/9/6 192/9/6
